<svg width="194" height="48" viewBox="0 0 194 48" fill="none" xmlns="http://www.w3.org/2000/svg">
<g clip-path="url(#clip0_4071_974)">
<path d="M30.066 17.2358H27.1392V33.5936H30.066V17.2358Z" fill="#13100D"/>
<path d="M30.066 11.4634H27.1392V14.3902H30.066V11.4634Z" fill="#13100D"/>
<path d="M44.049 37.5122C43.0897 40.8455 41.7563 43.8049 40.1303 46.4228C44.358 44.6342 47.984 41.9187 50.6994 38.5529C48.5043 38.1464 46.2767 37.8049 44.049 37.5285" fill="#27326F"/>
<path d="M53.5443 11.9185C50.65 12.5038 47.7232 12.9754 44.7639 13.3656C45.4468 16.5851 45.8208 20.1298 45.8208 23.9998C45.8208 27.8697 45.4468 31.3981 44.7639 34.6339C47.7232 35.0079 50.6663 35.4957 53.5443 36.0811C55.8533 32.5038 57.1866 28.39 57.1866 24.016C57.1866 19.642 55.8695 15.512 53.5443 11.9347" fill="#27326F"/>
<path d="M44.049 10.5041C46.2929 10.2277 48.5206 9.88619 50.7157 9.47968C48.0002 6.09757 44.358 3.38212 40.1303 1.59351C41.7563 4.19513 43.0897 7.15448 44.049 10.5041Z" fill="#27326F"/>
<path d="M17.0733 1.59375C12.8457 3.38237 9.20342 6.09781 6.48798 9.47993C8.6831 9.88643 10.9107 10.2279 13.1546 10.5043C14.114 7.15473 15.4473 4.19538 17.0733 1.59375Z" fill="#27326F"/>
<path d="M11.3821 23.9998C11.3821 20.1298 11.7561 16.5851 12.439 13.3656C9.46341 12.9916 6.53658 12.5038 3.65854 11.9185C1.31707 15.4957 0 19.6095 0 23.9998C0 28.39 1.31707 32.5038 3.64228 36.0648C6.53658 35.4794 9.46341 35.0079 12.4228 34.6176C11.7398 31.3981 11.3659 27.8534 11.3659 23.9835" fill="#27326F"/>
<path d="M13.1384 37.5116C10.8945 37.788 8.6831 38.1295 6.48798 38.536C9.20342 41.9019 12.8457 44.6336 17.0571 46.4059C15.4311 43.8043 14.0977 40.845 13.1384 37.4954" fill="#27326F"/>
<path d="M35.1055 11.3008C37.3006 11.187 39.4632 11.0081 41.6258 10.7805C40.7477 6.82927 39.4307 3.47967 37.6258 0.666667C36.8128 0.406504 35.9673 0.195122 35.1055 0V11.3008Z" fill="#27326F"/>
<path d="M22.0822 0C21.2204 0.195122 20.3912 0.406504 19.5619 0.666667C17.757 3.46341 16.4237 6.82927 15.5619 10.7805C17.7245 11.0081 19.8871 11.187 22.0822 11.3008V0Z" fill="#27326F"/>
<path d="M22.0825 14.2281C19.7086 14.1143 17.3508 13.9192 15.0256 13.6753C14.5378 16.781 14.3102 20.2119 14.3102 24.0005C14.3102 27.7891 14.5541 31.22 15.0256 34.3257C17.3508 34.0818 19.7086 33.8867 22.0825 33.7729V14.2281Z" fill="#27326F"/>
<path d="M42.1622 13.6743C39.837 13.9182 37.4793 14.1133 35.1053 14.2272V33.7719C37.4793 33.902 39.837 34.0808 42.1622 34.3247C42.65 31.219 42.8776 27.7881 42.8776 23.9995C42.8776 20.2109 42.6337 16.78 42.1622 13.6743Z" fill="#27326F"/>
<path d="M22.0822 36.7151C19.8871 36.8289 17.7245 37.0078 15.5619 37.2354C16.4399 41.1866 17.757 44.5362 19.5619 47.333C20.3749 47.5931 21.2204 47.8208 22.0822 47.9996V36.7151Z" fill="#27326F"/>
<path d="M35.1053 36.7151V47.9996C35.9508 47.8045 36.7963 47.5931 37.6256 47.333C39.4305 44.5362 40.7476 41.1866 41.6256 37.2354C39.4793 37.0078 37.3004 36.8289 35.1053 36.7151Z" fill="#27326F"/>
<path d="M74.9768 35.8859C74.9768 36.081 74.9118 36.2436 74.798 36.3737C74.6679 36.4875 74.5216 36.5526 74.3427 36.5526C74.1638 36.5526 74.0175 36.4875 73.8874 36.3737C73.7573 36.2599 73.7086 36.0973 73.7086 35.8859C73.7086 35.6745 73.7736 35.5282 73.8874 35.3981C74.0175 35.2843 74.1638 35.2192 74.3427 35.2192C74.5216 35.2192 74.6679 35.2843 74.798 35.3981C74.9281 35.5119 74.9768 35.6745 74.9768 35.8859ZM74.7817 44.829H73.9199V37.9672H74.7817V44.829Z" fill="#13100D"/>
<path d="M77.0566 38.1953C77.3168 38.1302 77.6583 38.0489 78.0973 37.9514C78.5363 37.8701 79.0566 37.8213 79.6908 37.8213C80.2111 37.8213 80.6501 37.9026 80.9916 38.0489C81.3331 38.1953 81.6257 38.4067 81.8209 38.6993C82.0323 38.9758 82.1786 39.3172 82.2599 39.7075C82.3575 40.0977 82.39 40.5205 82.39 40.992V44.8294H81.5282V41.2684C81.5282 40.7806 81.4957 40.3741 81.4306 40.0327C81.3656 39.6912 81.2518 39.4148 81.1054 39.2034C80.9428 38.992 80.7477 38.8457 80.4875 38.7481C80.2274 38.6506 79.9184 38.6018 79.5444 38.6018C79.1379 38.6018 78.7802 38.618 78.4875 38.6668C78.1949 38.7156 77.9997 38.7481 77.9184 38.7806V44.8132H77.0566V38.179V38.1953Z" fill="#13100D"/>
<path d="M85.43 37.9674H88.1617V38.6991H85.43V42.3577C85.43 42.7479 85.4625 43.0569 85.5276 43.3008C85.5926 43.5447 85.6902 43.7398 85.8203 43.8699C85.9504 44 86.0967 44.0975 86.2756 44.13C86.4544 44.1788 86.6495 44.1951 86.8609 44.1951C87.2186 44.1951 87.5113 44.1463 87.739 44.065C87.9666 43.9837 88.1292 43.9024 88.2593 43.8374L88.4707 44.5528C88.3406 44.6341 88.1292 44.7317 87.8203 44.8292C87.5113 44.9268 87.1699 44.9756 86.8121 44.9756C86.3894 44.9756 86.0317 44.9268 85.739 44.813C85.4463 44.6991 85.2186 44.5365 85.0398 44.3089C84.8609 44.0813 84.7471 43.8048 84.6821 43.4634C84.617 43.1219 84.5682 42.7317 84.5682 42.2764V35.9512L85.43 35.7886V37.9674Z" fill="#13100D"/>
<path d="M89.35 41.3828C89.35 40.7812 89.4313 40.2609 89.6102 39.8056C89.7891 39.3665 90.0167 38.9926 90.2931 38.6836C90.5695 38.3909 90.8947 38.1633 91.2525 38.0169C91.6102 37.8706 91.9842 37.7893 92.3582 37.7893C93.2037 37.7893 93.8704 38.0657 94.3744 38.6186C94.8785 39.1714 95.1224 40.0169 95.1224 41.1552C95.1224 41.2202 95.1224 41.3015 95.1224 41.3665C95.1224 41.4316 95.1224 41.5129 95.1061 41.5617H90.2769C90.3094 42.4072 90.5045 43.0576 90.911 43.4966C91.3013 43.9519 91.9191 44.1796 92.7647 44.1796C93.2362 44.1796 93.6102 44.1308 93.8866 44.0495C94.163 43.9682 94.3582 43.8869 94.4882 43.8218L94.6508 44.5698C94.5208 44.6348 94.2931 44.7324 93.9517 44.83C93.6102 44.9275 93.2037 44.9763 92.7484 44.9763C92.1468 44.9763 91.6265 44.895 91.2037 44.7161C90.7809 44.5373 90.4232 44.2934 90.1468 43.9682C89.8704 43.643 89.6752 43.269 89.5452 42.83C89.4151 42.3909 89.3663 41.9031 89.3663 41.3828M94.2443 40.83C94.2281 40.1145 94.0655 39.5617 93.7403 39.1552C93.4313 38.7649 92.9761 38.5535 92.3907 38.5535C92.0817 38.5535 91.8053 38.6186 91.5614 38.7324C91.3175 38.8625 91.1061 39.0251 90.9273 39.2365C90.7484 39.4478 90.6021 39.6917 90.5045 39.9682C90.4069 40.2446 90.3419 40.5373 90.3256 40.83H94.2606H94.2443Z" fill="#13100D"/>
<path d="M98.7806 44.9429C98.4879 44.9429 98.2278 44.8942 98.0164 44.8291C97.805 44.7641 97.6099 44.6665 97.4798 44.5202C97.3335 44.3738 97.2196 44.2112 97.1546 43.9836C97.0733 43.7722 97.0408 43.4958 97.0408 43.1706V34.6665L97.9026 34.5039V43.1381C97.9026 43.3494 97.9188 43.512 97.9676 43.6421C98.0164 43.7722 98.0652 43.8698 98.1465 43.9511C98.2278 44.0324 98.3253 44.0811 98.4554 44.1137C98.5855 44.1462 98.7318 44.1787 98.9107 44.2112L98.7969 44.9267L98.7806 44.9429Z" fill="#13100D"/>
<path d="M102.162 44.9429C101.87 44.9429 101.609 44.8942 101.398 44.8291C101.187 44.7641 100.992 44.6665 100.861 44.5202C100.715 44.3738 100.601 44.2112 100.536 43.9836C100.455 43.7722 100.422 43.4958 100.422 43.1706V34.6665L101.284 34.5039V43.1381C101.284 43.3494 101.3 43.512 101.349 43.6421C101.398 43.7722 101.447 43.8698 101.528 43.9511C101.609 44.0324 101.707 44.0811 101.837 44.1137C101.967 44.1462 102.113 44.1787 102.292 44.2112L102.179 44.9267L102.162 44.9429Z" fill="#13100D"/>
<path d="M103.399 41.3821C103.399 40.7804 103.48 40.2601 103.659 39.8048C103.838 39.3658 104.065 38.9918 104.342 38.6829C104.618 38.3902 104.943 38.1626 105.301 38.0162C105.659 37.8699 106.033 37.7886 106.407 37.7886C107.252 37.7886 107.919 38.065 108.423 38.6178C108.927 39.1707 109.171 40.0162 109.171 41.1544C109.171 41.2195 109.171 41.3008 109.171 41.3658C109.171 41.4309 109.171 41.5122 109.155 41.5609H104.325C104.358 42.4065 104.553 43.0569 104.943 43.4959C105.334 43.9512 105.951 44.1788 106.797 44.1788C107.268 44.1788 107.642 44.13 107.919 44.0487C108.195 43.9674 108.39 43.8861 108.521 43.8211L108.683 44.5691C108.553 44.6341 108.325 44.7317 107.984 44.8292C107.642 44.9268 107.236 44.9756 106.781 44.9756C106.179 44.9756 105.659 44.8943 105.236 44.7154C104.813 44.5365 104.455 44.2926 104.179 43.9674C103.903 43.6422 103.708 43.2682 103.577 42.8292C103.447 42.3902 103.399 41.9024 103.399 41.3821ZM108.277 40.8292C108.26 40.1138 108.081 39.5609 107.773 39.1544C107.464 38.7479 107.008 38.5528 106.423 38.5528C106.114 38.5528 105.838 38.6178 105.594 38.7317C105.35 38.8617 105.138 39.0243 104.96 39.2357C104.781 39.4471 104.634 39.691 104.537 39.9674C104.439 40.2439 104.374 40.5365 104.358 40.8292H108.293H108.277Z" fill="#13100D"/>
<path d="M113.934 44.9758C113.398 44.9758 112.926 44.8945 112.52 44.7319C112.113 44.5693 111.772 44.3254 111.512 44.0002C111.235 43.6912 111.04 43.3172 110.894 42.8782C110.747 42.4392 110.682 41.9514 110.682 41.431C110.682 40.9107 110.747 40.3904 110.894 39.9514C111.04 39.5123 111.251 39.1221 111.528 38.8132C111.804 38.488 112.129 38.2441 112.52 38.0815C112.91 37.9026 113.349 37.8213 113.837 37.8213C114.211 37.8213 114.552 37.8538 114.877 37.9188C115.203 37.9839 115.446 38.0652 115.625 38.1628L115.398 38.9107C115.219 38.8294 115.024 38.7481 114.796 38.6993C114.568 38.6506 114.276 38.618 113.902 38.618C113.138 38.618 112.568 38.8619 112.162 39.3497C111.772 39.8376 111.577 40.5367 111.577 41.4473C111.577 41.8538 111.625 42.2278 111.707 42.5693C111.788 42.9107 111.934 43.2034 112.129 43.4473C112.325 43.6912 112.585 43.8863 112.894 44.0164C113.203 44.1465 113.593 44.2278 114.048 44.2278C114.422 44.2278 114.731 44.179 114.991 44.0977C115.251 44.0164 115.43 43.9351 115.544 43.8863L115.723 44.6343C115.56 44.7319 115.316 44.8132 114.975 44.8945C114.633 44.9758 114.276 45.0245 113.902 45.0245" fill="#13100D"/>
<path d="M118.015 37.9674H120.747V38.6991H118.015V42.3577C118.015 42.7479 118.048 43.0569 118.113 43.3008C118.178 43.5447 118.275 43.7398 118.405 43.8699C118.535 44 118.682 44.0975 118.861 44.13C119.039 44.1788 119.235 44.1951 119.446 44.1951C119.804 44.1951 120.096 44.1463 120.324 44.065C120.552 43.9837 120.714 43.9024 120.844 43.8374L121.056 44.5528C120.926 44.6341 120.714 44.7317 120.405 44.8292C120.096 44.9268 119.755 44.9756 119.397 44.9756C118.974 44.9756 118.617 44.9268 118.324 44.813C118.031 44.6991 117.804 44.5365 117.625 44.3089C117.446 44.0813 117.332 43.8048 117.267 43.4634C117.202 43.1219 117.153 42.7317 117.153 42.2764V35.9512L118.015 35.7886V37.9674Z" fill="#13100D"/>
<path d="M127.611 44.5854C127.35 44.6505 127.009 44.7318 126.57 44.8293C126.131 44.9106 125.611 44.9594 124.976 44.9594C124.456 44.9594 124.033 44.8781 123.692 44.7318C123.35 44.5854 123.074 44.374 122.863 44.0976C122.651 43.8212 122.505 43.496 122.407 43.1057C122.31 42.7155 122.261 42.2927 122.261 41.8212V37.9675H123.123V41.5448C123.123 42.0326 123.155 42.4391 123.237 42.7805C123.302 43.122 123.416 43.3822 123.578 43.5935C123.741 43.8049 123.936 43.9513 124.196 44.0488C124.456 44.1464 124.765 44.1952 125.123 44.1952C125.529 44.1952 125.887 44.1789 126.18 44.1301C126.472 44.0813 126.668 44.0488 126.749 44.0163V37.9838H127.611V44.6179V44.5854Z" fill="#13100D"/>
<path d="M131.984 37.8052C132.439 37.8052 132.813 37.8702 133.139 38.0003C133.448 38.1304 133.708 38.3092 133.903 38.5369C134.098 38.7645 134.244 39.0247 134.326 39.3336C134.407 39.6426 134.456 39.984 134.456 40.3418V44.667C134.374 44.6995 134.244 44.7157 134.065 44.7483C133.903 44.7808 133.708 44.8133 133.48 44.8458C133.252 44.8783 133.009 44.9109 132.748 44.9271C132.472 44.9434 132.196 44.9596 131.919 44.9596C131.561 44.9596 131.22 44.9109 130.911 44.8458C130.602 44.7645 130.342 44.6344 130.114 44.4718C129.887 44.293 129.708 44.0816 129.578 43.8052C129.448 43.5288 129.383 43.2035 129.383 42.8133C129.383 42.4231 129.448 42.1304 129.594 41.854C129.74 41.5938 129.935 41.3662 130.196 41.2036C130.456 41.0247 130.765 40.9109 131.106 40.8296C131.464 40.7483 131.854 40.7157 132.261 40.7157C132.391 40.7157 132.521 40.7157 132.651 40.732C132.781 40.732 132.927 40.7645 133.057 40.7808C133.187 40.797 133.301 40.8296 133.383 40.8458C133.48 40.8621 133.545 40.8946 133.578 40.9109V40.4881C133.578 40.2442 133.561 40.0166 133.529 39.7889C133.496 39.5613 133.415 39.3662 133.301 39.171C133.187 38.9922 133.009 38.8458 132.797 38.732C132.586 38.6182 132.293 38.5694 131.935 38.5694C131.431 38.5694 131.057 38.6019 130.813 38.6832C130.569 38.7483 130.391 38.8133 130.277 38.8621L130.163 38.0979C130.309 38.0328 130.553 37.9678 130.862 37.9027C131.171 37.8377 131.561 37.8052 132 37.8052M132.082 44.2117C132.423 44.2117 132.716 44.2117 132.96 44.1792C133.22 44.1629 133.431 44.1304 133.61 44.0979V41.6751C133.513 41.6263 133.366 41.5775 133.155 41.5288C132.943 41.48 132.651 41.4637 132.277 41.4637C132.065 41.4637 131.838 41.4637 131.61 41.5125C131.383 41.545 131.171 41.6101 130.976 41.7076C130.781 41.8052 130.618 41.9515 130.504 42.1304C130.374 42.3092 130.326 42.5369 130.326 42.8296C130.326 43.0897 130.374 43.3011 130.456 43.48C130.537 43.6588 130.651 43.8052 130.813 43.9027C130.976 44.0166 131.155 44.0816 131.366 44.1304C131.578 44.1792 131.822 44.1954 132.098 44.1954" fill="#13100D"/>
<path d="M138.406 44.9429C138.113 44.9429 137.853 44.8942 137.642 44.8291C137.43 44.7641 137.235 44.6665 137.105 44.5202C136.959 44.3738 136.845 44.2112 136.78 43.9836C136.699 43.7722 136.666 43.4958 136.666 43.1706V34.6665L137.528 34.5039V43.1381C137.528 43.3494 137.544 43.512 137.593 43.6421C137.642 43.7722 137.691 43.8698 137.772 43.9511C137.853 44.0324 137.951 44.0811 138.081 44.1137C138.211 44.1462 138.357 44.1787 138.536 44.2112L138.422 44.9267L138.406 44.9429Z" fill="#13100D"/>
<path d="M143.936 47.2847H143.075V38.1953C143.335 38.114 143.66 38.0164 144.066 37.9351C144.457 37.8538 144.977 37.8213 145.579 37.8213C146.083 37.8213 146.538 37.9026 146.961 38.0652C147.367 38.2278 147.725 38.4717 148.018 38.7806C148.31 39.0896 148.538 39.4636 148.717 39.9188C148.879 40.3579 148.961 40.8619 148.961 41.4148C148.961 41.9351 148.896 42.4229 148.749 42.8619C148.619 43.301 148.408 43.6749 148.148 44.0002C147.888 44.3091 147.562 44.553 147.172 44.7319C146.782 44.9107 146.343 44.992 145.855 44.992C145.4 44.992 145.009 44.927 144.684 44.7969C144.359 44.6668 144.115 44.553 143.969 44.4392V47.301L143.936 47.2847ZM143.936 43.5936C143.936 43.5936 144.115 43.7237 144.229 43.7888C144.343 43.8538 144.489 43.9188 144.652 43.9839C144.814 44.0489 144.993 44.0977 145.172 44.1302C145.367 44.1628 145.546 44.1953 145.757 44.1953C146.18 44.1953 146.538 44.1302 146.831 43.9676C147.123 43.8213 147.351 43.6262 147.53 43.366C147.709 43.1058 147.839 42.8132 147.92 42.4717C148.001 42.1302 148.034 41.7725 148.034 41.3823C148.034 40.4717 147.806 39.7888 147.351 39.301C146.896 38.8132 146.294 38.5693 145.562 38.5693C145.14 38.5693 144.798 38.5855 144.538 38.6343C144.278 38.6831 144.083 38.7156 143.953 38.7644V43.5611L143.936 43.5936Z" fill="#13100D"/>
<path d="M153.154 37.8374C153.43 37.8374 153.706 37.8537 153.95 37.9024C154.194 37.9512 154.373 37.9837 154.471 38.0325L154.292 38.7805C154.292 38.7805 154.08 38.7155 153.853 38.6667C153.641 38.6342 153.349 38.6016 152.991 38.6016C152.617 38.6016 152.324 38.6342 152.097 38.6829C151.869 38.7317 151.723 38.7805 151.658 38.813V44.8293H150.796V38.2764C151.023 38.1789 151.316 38.0813 151.706 37.9837C152.097 37.8862 152.568 37.8374 153.121 37.8374" fill="#13100D"/>
<path d="M161.643 41.3991C161.643 41.9356 161.562 42.4397 161.415 42.8787C161.253 43.3178 161.041 43.6917 160.765 44.0169C160.488 44.3259 160.147 44.5698 159.773 44.7487C159.383 44.9275 158.976 45.0088 158.505 45.0088C158.033 45.0088 157.627 44.9275 157.236 44.7487C156.862 44.5698 156.521 44.3259 156.244 44.0169C155.968 43.708 155.757 43.334 155.594 42.8787C155.431 42.4397 155.366 41.9519 155.366 41.3991C155.366 40.8462 155.448 40.3747 155.594 39.9194C155.757 39.4804 155.968 39.0901 156.244 38.7812C156.521 38.4722 156.846 38.2283 157.236 38.0495C157.627 37.8706 158.033 37.7893 158.505 37.7893C158.976 37.7893 159.383 37.8706 159.773 38.0495C160.147 38.2283 160.488 38.4722 160.765 38.7812C161.041 39.0901 161.253 39.4804 161.415 39.9194C161.578 40.3584 161.643 40.8625 161.643 41.3991ZM160.732 41.3991C160.732 40.5373 160.537 39.8543 160.131 39.3503C159.74 38.8462 159.188 38.5861 158.505 38.5861C157.822 38.5861 157.285 38.8462 156.879 39.3503C156.472 39.8543 156.277 40.5373 156.277 41.3991C156.277 42.2608 156.472 42.9438 156.879 43.4478C157.269 43.9519 157.822 44.2121 158.505 44.2121C159.188 44.2121 159.724 43.9519 160.131 43.4478C160.537 42.9438 160.732 42.2608 160.732 41.3991Z" fill="#13100D"/>
<path d="M164.39 47.2847H163.528V38.1953C163.789 38.114 164.114 38.0164 164.504 37.9351C164.894 37.8538 165.415 37.8213 166.016 37.8213C166.52 37.8213 166.976 37.9026 167.398 38.0652C167.805 38.2278 168.163 38.4717 168.455 38.7806C168.748 39.0896 168.976 39.4636 169.138 39.9188C169.301 40.3579 169.382 40.8619 169.382 41.4148C169.382 41.9351 169.317 42.4229 169.171 42.8619C169.041 43.301 168.829 43.6749 168.569 44.0002C168.309 44.3091 167.984 44.553 167.593 44.7319C167.203 44.9107 166.764 44.992 166.276 44.992C165.821 44.992 165.431 44.927 165.106 44.7969C164.78 44.6668 164.537 44.553 164.39 44.4392V47.301V47.2847ZM164.39 43.5936C164.39 43.5936 164.569 43.7237 164.683 43.7888C164.797 43.8538 164.943 43.9188 165.106 43.9839C165.268 44.0489 165.447 44.0977 165.626 44.1302C165.805 44.1628 166 44.1953 166.211 44.1953C166.634 44.1953 166.992 44.1302 167.284 43.9676C167.577 43.805 167.805 43.6262 167.984 43.366C168.163 43.1058 168.293 42.8132 168.374 42.4717C168.455 42.1302 168.488 41.7725 168.488 41.3823C168.488 40.4717 168.26 39.7888 167.805 39.301C167.35 38.8132 166.748 38.5693 166.016 38.5693C165.593 38.5693 165.252 38.5855 164.992 38.6343C164.732 38.6831 164.537 38.7156 164.406 38.7644V43.5611L164.39 43.5936Z" fill="#13100D"/>
<path d="M170.845 41.3821C170.845 40.7804 170.926 40.2601 171.105 39.8048C171.284 39.3658 171.496 38.9918 171.788 38.6829C172.065 38.3902 172.39 38.1626 172.748 38.0162C173.105 37.8699 173.479 37.7886 173.853 37.7886C174.699 37.7886 175.365 38.065 175.87 38.6178C176.374 39.1707 176.617 40.0162 176.617 41.1544C176.617 41.2195 176.617 41.3008 176.617 41.3658C176.617 41.4309 176.617 41.5122 176.601 41.5609H171.772C171.804 42.4065 172 43.0569 172.39 43.4959C172.78 43.9512 173.398 44.1788 174.244 44.1788C174.715 44.1788 175.089 44.13 175.365 44.0487C175.642 43.9674 175.837 43.8861 175.967 43.8211L176.13 44.5691C176 44.6341 175.772 44.7317 175.43 44.8292C175.089 44.9268 174.683 44.9756 174.227 44.9756C173.626 44.9756 173.105 44.8943 172.683 44.7154C172.26 44.5365 171.902 44.2926 171.626 43.9674C171.349 43.6422 171.154 43.2682 171.024 42.8292C170.894 42.3902 170.829 41.9024 170.829 41.3821M175.707 40.8292C175.691 40.1138 175.512 39.5609 175.203 39.1544C174.894 38.7479 174.439 38.5528 173.853 38.5528C173.544 38.5528 173.268 38.6178 173.024 38.7317C172.78 38.8617 172.569 39.0243 172.39 39.2357C172.211 39.4471 172.065 39.691 171.967 39.9674C171.87 40.2439 171.804 40.5365 171.788 40.8292H175.723H175.707Z" fill="#13100D"/>
<path d="M180.877 37.8374C181.154 37.8374 181.43 37.8537 181.674 37.9024C181.918 37.9512 182.097 37.9837 182.194 38.0325L182.015 38.7805C182.015 38.7805 181.804 38.7155 181.576 38.6667C181.365 38.6342 181.072 38.6016 180.715 38.6016C180.341 38.6016 180.048 38.6342 179.82 38.6829C179.593 38.7317 179.446 38.7805 179.381 38.813V44.8293H178.52V38.2764C178.747 38.1789 179.04 38.0813 179.43 37.9837C179.82 37.8862 180.292 37.8374 180.845 37.8374" fill="#13100D"/>
<path d="M184.324 37.9674H187.055V38.6991H184.324V42.3577C184.324 42.7479 184.356 43.0569 184.421 43.3008C184.486 43.5447 184.584 43.7398 184.714 43.8699C184.844 44 184.99 44.0975 185.169 44.13C185.348 44.1788 185.543 44.1951 185.755 44.1951C186.112 44.1951 186.405 44.1463 186.633 44.065C186.86 43.9837 187.023 43.9024 187.153 43.8374L187.364 44.5528C187.234 44.6341 187.023 44.7317 186.714 44.8292C186.405 44.9268 186.064 44.9756 185.706 44.9756C185.283 44.9756 184.925 44.9268 184.633 44.813C184.34 44.6991 184.112 44.5365 183.934 44.3089C183.755 44.0813 183.641 43.8048 183.576 43.4634C183.511 43.1219 183.462 42.7317 183.462 42.2764V35.9512L184.324 35.7886V37.9674Z" fill="#13100D"/>
<path d="M190.52 44.9757C190.227 44.4391 189.951 43.87 189.674 43.2846C189.398 42.6992 189.154 42.1139 188.91 41.5122C188.666 40.9106 188.455 40.3253 188.26 39.7236C188.065 39.122 187.902 38.5366 187.756 37.9675H188.666C188.764 38.3903 188.894 38.8456 189.04 39.3496C189.187 39.8374 189.365 40.3415 189.544 40.8781C189.739 41.3984 189.951 41.935 190.178 42.4879C190.406 43.0407 190.666 43.5773 190.926 44.1139C191.122 43.561 191.3 43.057 191.447 42.5692C191.593 42.0814 191.739 41.5935 191.87 41.122C192 40.6342 192.13 40.1464 192.244 39.6423C192.357 39.1383 192.487 38.5854 192.617 38.0001H193.479C193.187 39.2846 192.861 40.5366 192.504 41.7399C192.146 42.9594 191.756 44.0651 191.333 45.0732C191.17 45.4635 190.991 45.8212 190.813 46.0976C190.634 46.3903 190.439 46.6179 190.227 46.8131C190.016 46.9919 189.756 47.1383 189.463 47.2196C189.17 47.3009 188.829 47.3496 188.439 47.3496C188.211 47.3496 188.016 47.3171 187.837 47.2683C187.658 47.2196 187.544 47.1708 187.496 47.1545L187.674 46.4391C187.674 46.4391 187.804 46.5041 187.967 46.5529C188.13 46.6017 188.309 46.6179 188.487 46.6179C188.731 46.6179 188.959 46.5854 189.154 46.5366C189.349 46.4879 189.528 46.3903 189.691 46.2602C189.853 46.1301 190 45.9675 190.13 45.7561C190.26 45.561 190.39 45.3009 190.504 44.9919" fill="#13100D"/>
<path d="M84.9916 9.41481C85.6583 9.25221 86.5526 9.07335 87.6583 8.87823C88.764 8.68311 90.0485 8.60181 91.4957 8.60181C92.7965 8.60181 93.8696 8.78067 94.7314 9.15465C95.5932 9.52864 96.2762 10.0327 96.7965 10.6994C97.3168 11.366 97.6745 12.1465 97.8859 13.0734C98.0973 14.0002 98.1949 15.0083 98.1949 16.1303V25.3173H95.268V16.7644C95.268 15.7563 95.203 14.8945 95.0566 14.179C94.9266 13.4636 94.6989 12.8945 94.3737 12.4392C94.0648 12.0002 93.642 11.675 93.1217 11.4799C92.6014 11.2847 91.951 11.1872 91.1705 11.1872C90.8615 11.1872 90.5363 11.1872 90.1949 11.2197C89.8534 11.2522 89.5445 11.2685 89.2355 11.301C88.9266 11.3335 88.6664 11.366 88.4225 11.4148C88.1786 11.4636 88.016 11.4961 87.9022 11.5124V25.3173H84.9753V9.41481H84.9916Z" fill="#27326F"/>
<path d="M118.471 8.94312C117.658 12 116.699 14.9431 115.593 17.7561C114.487 20.5691 113.431 23.0895 112.406 25.3171H109.756C108.731 23.0895 107.658 20.5691 106.569 17.7561C105.463 14.9431 104.504 12.0163 103.691 8.94312H106.829C107.073 9.96751 107.382 11.0732 107.723 12.2277C108.065 13.3984 108.439 14.5529 108.829 15.6911C109.219 16.8293 109.609 17.935 110.016 19.0082C110.406 20.0813 110.796 21.0244 111.154 21.8699C111.512 21.0244 111.886 20.0813 112.292 19.0082C112.699 17.935 113.089 16.8293 113.479 15.6911C113.87 14.5529 114.227 13.3984 114.585 12.2277C114.943 11.0569 115.235 9.96751 115.479 8.94312H118.504H118.471Z" fill="#27326F"/>
<path d="M123.285 17.1542C123.285 15.707 123.496 14.4387 123.919 13.3655C124.342 12.2924 124.895 11.3818 125.594 10.6664C126.293 9.95091 127.09 9.41433 127.984 9.05661C128.878 8.69888 129.805 8.52002 130.748 8.52002C132.943 8.52002 134.634 9.20295 135.821 10.5851C136.992 11.9672 137.577 14.0485 137.577 16.8615V17.3493C137.577 17.5444 137.577 17.7233 137.545 17.9021H126.342C126.472 19.5932 126.96 20.894 127.821 21.7721C128.683 22.6501 130.016 23.0891 131.854 23.0891C132.878 23.0891 133.74 22.9916 134.456 22.829C135.155 22.6501 135.691 22.4712 136.049 22.3086L136.456 24.7639C136.098 24.959 135.48 25.1542 134.586 25.3655C133.691 25.5769 132.683 25.6745 131.545 25.6745C130.114 25.6745 128.878 25.4631 127.854 25.0241C126.813 24.6013 125.968 23.9997 125.285 23.2517C124.618 22.4875 124.114 21.5932 123.789 20.5688C123.464 19.5281 123.301 18.3899 123.301 17.1542M134.537 15.5444C134.553 14.2273 134.228 13.1379 133.545 12.2924C132.862 11.4468 131.919 11.0241 130.732 11.0241C130.065 11.0241 129.464 11.1542 128.96 11.4143C128.439 11.6745 128.017 12.016 127.659 12.4387C127.301 12.8615 127.025 13.333 126.83 13.8859C126.634 14.4387 126.504 14.9916 126.439 15.5444H134.553H134.537Z" fill="#27326F"/>
<path d="M144.927 9.41481C145.594 9.25221 146.488 9.07335 147.594 8.87823C148.699 8.68311 149.984 8.60181 151.431 8.60181C152.732 8.60181 153.805 8.78067 154.667 9.15465C155.529 9.52864 156.212 10.0327 156.732 10.6994C157.252 11.366 157.61 12.1465 157.821 13.0734C158.033 14.0002 158.13 15.0083 158.13 16.1303V25.3173H155.203V16.7644C155.203 15.7563 155.138 14.8945 154.992 14.179C154.862 13.4636 154.634 12.8945 154.309 12.4392C154 12.0002 153.577 11.675 153.057 11.4799C152.537 11.2847 151.886 11.1872 151.106 11.1872C150.797 11.1872 150.472 11.1872 150.13 11.2197C149.789 11.236 149.48 11.2685 149.171 11.301C148.862 11.3335 148.602 11.366 148.358 11.4148C148.114 11.4636 147.951 11.4961 147.838 11.5124V25.3173H144.911V9.41481H144.927Z" fill="#27326F"/>
<path d="M168.879 8.94304H175.074V11.3983H168.879V18.943C168.879 19.7561 168.944 20.439 169.074 20.9756C169.204 21.5121 169.383 21.9349 169.643 22.2276C169.887 22.5365 170.212 22.7479 170.586 22.878C170.96 23.0081 171.399 23.0731 171.903 23.0731C172.781 23.0731 173.497 22.9756 174.033 22.7804C174.57 22.5853 174.944 22.439 175.155 22.3577L175.724 24.7804C175.431 24.9268 174.911 25.1056 174.179 25.3333C173.448 25.5609 172.602 25.6585 171.659 25.6585C170.553 25.6585 169.627 25.5121 168.911 25.2357C168.179 24.9593 167.61 24.5203 167.171 23.9674C166.732 23.3983 166.423 22.6991 166.244 21.8699C166.066 21.0406 165.984 20.0813 165.984 18.9918V4.37394L168.911 3.86987V8.92678L168.879 8.94304Z" fill="#27326F"/>
<path d="M187.218 8.52002C188.389 8.52002 189.381 8.66636 190.194 8.9753C191.007 9.28425 191.657 9.70701 192.145 10.2599C192.633 10.8127 192.99 11.4794 193.202 12.2436C193.413 13.0078 193.511 13.8534 193.511 14.7802V25.0078C193.267 25.0403 192.909 25.1054 192.454 25.1867C191.999 25.268 191.494 25.333 190.925 25.3818C190.356 25.4468 189.755 25.5119 189.088 25.5607C188.421 25.6095 187.771 25.642 187.12 25.642C186.194 25.642 185.348 25.5444 184.568 25.3655C183.787 25.1704 183.12 24.8777 182.551 24.4712C181.982 24.0647 181.543 23.5282 181.234 22.8452C180.925 22.1786 180.763 21.3655 180.763 20.4225C180.763 19.4794 180.942 18.7477 181.316 18.0973C181.673 17.4468 182.177 16.9265 182.812 16.52C183.446 16.1298 184.177 15.8371 185.023 15.642C185.852 15.4468 186.747 15.3655 187.657 15.3655C187.95 15.3655 188.259 15.3655 188.568 15.4143C188.877 15.4468 189.186 15.4794 189.462 15.5444C189.738 15.5932 189.999 15.642 190.21 15.6908C190.421 15.7395 190.568 15.7721 190.649 15.7883V14.9753C190.649 14.4875 190.6 14.016 190.486 13.5444C190.389 13.0729 190.194 12.6501 189.917 12.2924C189.641 11.9184 189.267 11.6257 188.795 11.4143C188.324 11.1867 187.706 11.0891 186.958 11.0891C185.999 11.0891 185.153 11.1542 184.421 11.2842C183.706 11.4143 183.153 11.5607 182.795 11.707L182.454 9.28425C182.828 9.12165 183.462 8.95904 184.34 8.79644C185.218 8.63384 186.177 8.55254 187.202 8.55254M187.462 23.2192C188.161 23.2192 188.763 23.2192 189.299 23.1704C189.836 23.1379 190.275 23.0891 190.633 22.9916V18.1135C190.421 18.016 190.08 17.9184 189.608 17.8534C189.137 17.7721 188.568 17.7395 187.901 17.7395C187.462 17.7395 186.99 17.7721 186.503 17.8371C186.015 17.9021 185.56 18.0322 185.153 18.2273C184.747 18.4225 184.405 18.6989 184.129 19.0403C183.852 19.3818 183.722 19.8371 183.722 20.4062C183.722 21.4631 184.064 22.1786 184.73 22.6013C185.397 23.0078 186.307 23.2192 187.462 23.2192Z" fill="#27326F"/>
<path d="M76.8129 8.94312H73.8861V25.3008H76.8129V8.94312Z" fill="#27326F"/>
<path d="M73.8861 3.67448V6.09724H76.8129V3.17041L73.8861 3.67448Z" fill="#27326F"/>
</g>
<defs>
<clipPath id="clip0_4071_974">
<rect width="193.512" height="48" fill="white"/>
</clipPath>
</defs>
</svg>
