<svg width="25" height="24" viewBox="0 0 25 24" fill="none" xmlns="http://www.w3.org/2000/svg">
<path d="M12.27 2.25C10.3417 2.25 8.45659 2.82183 6.85321 3.89317C5.24983 4.96451 4.00015 6.48726 3.2622 8.26884C2.52424 10.0504 2.33116 12.0108 2.70737 13.9021C3.08357 15.7934 4.01217 17.5307 5.37573 18.8943C6.7393 20.2579 8.47658 21.1865 10.3679 21.5627C12.2592 21.9389 14.2196 21.7458 16.0012 21.0078C17.7828 20.2699 19.3055 19.0202 20.3769 17.4168C21.4482 15.8134 22.02 13.9284 22.02 12C22.0173 9.41498 20.9892 6.93661 19.1613 5.10872C17.3334 3.28084 14.855 2.25273 12.27 2.25ZM13.02 20.2153V14.25H15.27C15.4689 14.25 15.6597 14.171 15.8004 14.0303C15.941 13.8897 16.02 13.6989 16.02 13.5C16.02 13.3011 15.941 13.1103 15.8004 12.9697C15.6597 12.829 15.4689 12.75 15.27 12.75H13.02V10.5C13.02 10.1022 13.1781 9.72064 13.4594 9.43934C13.7407 9.15804 14.1222 9 14.52 9H16.02C16.2189 9 16.4097 8.92098 16.5504 8.78033C16.691 8.63968 16.77 8.44891 16.77 8.25C16.77 8.05109 16.691 7.86032 16.5504 7.71967C16.4097 7.57902 16.2189 7.5 16.02 7.5H14.52C13.7244 7.5 12.9613 7.81607 12.3987 8.37868C11.8361 8.94129 11.52 9.70435 11.52 10.5V12.75H9.27002C9.07111 12.75 8.88035 12.829 8.73969 12.9697C8.59904 13.1103 8.52002 13.3011 8.52002 13.5C8.52002 13.6989 8.59904 13.8897 8.73969 14.0303C8.88035 14.171 9.07111 14.25 9.27002 14.25H11.52V20.2153C9.40577 20.0223 7.4473 19.0217 6.052 17.4215C4.65669 15.8214 3.93197 13.7449 4.02857 11.6241C4.12517 9.50324 5.03566 7.50127 6.57066 6.0346C8.10565 4.56793 10.147 3.74947 12.27 3.74947C14.3931 3.74947 16.4344 4.56793 17.9694 6.0346C19.5044 7.50127 20.4149 9.50324 20.5115 11.6241C20.6081 13.7449 19.8834 15.8214 18.4881 17.4215C17.0927 19.0217 15.1343 20.0223 13.02 20.2153Z" fill="#3346AA"/>
</svg>
