<svg width="12" height="15" viewBox="0 0 12 15" fill="none" xmlns="http://www.w3.org/2000/svg">
<path d="M6.00012 3.5C5.50567 3.5 5.02232 3.64662 4.6112 3.92133C4.20007 4.19603 3.87964 4.58648 3.69042 5.04329C3.5012 5.50011 3.4517 6.00277 3.54816 6.48773C3.64462 6.97268 3.88272 7.41814 4.23236 7.76777C4.58199 8.1174 5.02744 8.3555 5.5124 8.45196C5.99735 8.54843 6.50002 8.49892 6.95683 8.3097C7.41365 8.12048 7.80409 7.80005 8.0788 7.38893C8.3535 6.9778 8.50012 6.49445 8.50012 6C8.50012 5.33696 8.23673 4.70107 7.76789 4.23223C7.29905 3.76339 6.66316 3.5 6.00012 3.5ZM6.00012 7.5C5.70345 7.5 5.41344 7.41203 5.16677 7.2472C4.92009 7.08238 4.72783 6.84811 4.6143 6.57403C4.50077 6.29994 4.47107 5.99834 4.52894 5.70736C4.58682 5.41639 4.72968 5.14912 4.93946 4.93934C5.14924 4.72956 5.41652 4.5867 5.70749 4.52882C5.99846 4.47094 6.30006 4.50065 6.57415 4.61418C6.84824 4.72771 7.0825 4.91997 7.24733 5.16664C7.41215 5.41332 7.50012 5.70333 7.50012 6C7.50012 6.39782 7.34209 6.77936 7.06078 7.06066C6.77948 7.34196 6.39795 7.5 6.00012 7.5ZM6.00012 0.5C4.54194 0.501654 3.14395 1.08165 2.11286 2.11274C1.08177 3.14383 0.501776 4.54182 0.500122 6C0.500122 7.9625 1.407 10.0425 3.12512 12.0156C3.89713 12.9072 4.76603 13.7101 5.71575 14.4094C5.79982 14.4683 5.89998 14.4999 6.00262 14.4999C6.10527 14.4999 6.20543 14.4683 6.2895 14.4094C7.23747 13.7098 8.10467 12.9069 8.87512 12.0156C10.5907 10.0425 11.5001 7.9625 11.5001 6C11.4985 4.54182 10.9185 3.14383 9.88738 2.11274C8.85629 1.08165 7.4583 0.501654 6.00012 0.5ZM6.00012 13.375C4.967 12.5625 1.50012 9.57812 1.50012 6C1.50012 4.80653 1.97423 3.66193 2.81814 2.81802C3.66206 1.97411 4.80665 1.5 6.00012 1.5C7.1936 1.5 8.33819 1.97411 9.1821 2.81802C10.026 3.66193 10.5001 4.80653 10.5001 6C10.5001 9.57687 7.03325 12.5625 6.00012 13.375Z" fill="black"/>
</svg>
