<svg width="25" height="24" viewBox="0 0 25 24" fill="none" xmlns="http://www.w3.org/2000/svg">
<path d="M12.27 7.5C11.38 7.5 10.51 7.76392 9.76995 8.25839C9.02993 8.75285 8.45316 9.45566 8.11256 10.2779C7.77197 11.1002 7.68285 12.005 7.85649 12.8779C8.03012 13.7508 8.4587 14.5526 9.08804 15.182C9.71738 15.8113 10.5192 16.2399 11.3921 16.4135C12.265 16.5872 13.1698 16.4981 13.9921 16.1575C14.8144 15.8169 15.5172 15.2401 16.0116 14.5001C16.5061 13.76 16.77 12.89 16.77 12C16.7688 10.8069 16.2943 9.66303 15.4506 8.81939C14.607 7.97575 13.4631 7.50124 12.27 7.5ZM12.27 15C11.6767 15 11.0967 14.8241 10.6033 14.4944C10.11 14.1648 9.72544 13.6962 9.49838 13.1481C9.27132 12.5999 9.21191 11.9967 9.32766 11.4147C9.44342 10.8328 9.72914 10.2982 10.1487 9.87868C10.5683 9.45912 11.1028 9.1734 11.6847 9.05764C12.2667 8.94189 12.8699 9.0013 13.4181 9.22836C13.9662 9.45542 14.4348 9.83994 14.7644 10.3333C15.0941 10.8266 15.27 11.4067 15.27 12C15.27 12.7956 14.9539 13.5587 14.3913 14.1213C13.8287 14.6839 13.0657 15 12.27 15ZM16.77 2.25H7.77002C6.37809 2.25149 5.0436 2.80509 4.05935 3.78933C3.07511 4.77358 2.52151 6.10807 2.52002 7.5V16.5C2.52151 17.8919 3.07511 19.2264 4.05935 20.2107C5.0436 21.1949 6.37809 21.7485 7.77002 21.75H16.77C18.1619 21.7485 19.4964 21.1949 20.4807 20.2107C21.4649 19.2264 22.0185 17.8919 22.02 16.5V7.5C22.0185 6.10807 21.4649 4.77358 20.4807 3.78933C19.4964 2.80509 18.1619 2.25149 16.77 2.25ZM20.52 16.5C20.52 17.4946 20.1249 18.4484 19.4217 19.1516C18.7184 19.8549 17.7646 20.25 16.77 20.25H7.77002C6.77546 20.25 5.82163 19.8549 5.11837 19.1516C4.41511 18.4484 4.02002 17.4946 4.02002 16.5V7.5C4.02002 6.50544 4.41511 5.55161 5.11837 4.84835C5.82163 4.14509 6.77546 3.75 7.77002 3.75H16.77C17.7646 3.75 18.7184 4.14509 19.4217 4.84835C20.1249 5.55161 20.52 6.50544 20.52 7.5V16.5ZM18.27 7.125C18.27 7.3475 18.204 7.56501 18.0804 7.75002C17.9568 7.93502 17.7811 8.07922 17.5755 8.16436C17.37 8.24951 17.1438 8.27179 16.9255 8.22838C16.7073 8.18498 16.5069 8.07783 16.3495 7.9205C16.1922 7.76316 16.085 7.56271 16.0416 7.34448C15.9982 7.12625 16.0205 6.90005 16.1057 6.69448C16.1908 6.48891 16.335 6.31321 16.52 6.1896C16.705 6.06598 16.9225 6 17.145 6C17.4434 6 17.7295 6.11853 17.9405 6.3295C18.1515 6.54048 18.27 6.82663 18.27 7.125Z" fill="#3346AA"/>
</svg>
