<svg width="25" height="24" viewBox="0 0 25 24" fill="none" xmlns="http://www.w3.org/2000/svg">
<path d="M20.52 2.25H4.02002C3.62219 2.25 3.24066 2.40804 2.95936 2.68934C2.67805 2.97064 2.52002 3.35218 2.52002 3.75V20.25C2.52002 20.6478 2.67805 21.0294 2.95936 21.3107C3.24066 21.592 3.62219 21.75 4.02002 21.75H20.52C20.9178 21.75 21.2994 21.592 21.5807 21.3107C21.862 21.0294 22.02 20.6478 22.02 20.25V3.75C22.02 3.35218 21.862 2.97064 21.5807 2.68934C21.2994 2.40804 20.9178 2.25 20.52 2.25ZM20.52 20.25H4.02002V3.75H20.52V20.25ZM9.27002 10.5V16.5C9.27002 16.6989 9.191 16.8897 9.05035 17.0303C8.9097 17.171 8.71893 17.25 8.52002 17.25C8.32111 17.25 8.13034 17.171 7.98969 17.0303C7.84904 16.8897 7.77002 16.6989 7.77002 16.5V10.5C7.77002 10.3011 7.84904 10.1103 7.98969 9.96967C8.13034 9.82902 8.32111 9.75 8.52002 9.75C8.71893 9.75 8.9097 9.82902 9.05035 9.96967C9.191 10.1103 9.27002 10.3011 9.27002 10.5ZM17.52 13.125V16.5C17.52 16.6989 17.441 16.8897 17.3004 17.0303C17.1597 17.171 16.9689 17.25 16.77 17.25C16.5711 17.25 16.3803 17.171 16.2397 17.0303C16.099 16.8897 16.02 16.6989 16.02 16.5V13.125C16.02 12.6277 15.8225 12.1508 15.4708 11.7992C15.1192 11.4475 14.6423 11.25 14.145 11.25C13.6477 11.25 13.1708 11.4475 12.8192 11.7992C12.4676 12.1508 12.27 12.6277 12.27 13.125V16.5C12.27 16.6989 12.191 16.8897 12.0503 17.0303C11.9097 17.171 11.7189 17.25 11.52 17.25C11.3211 17.25 11.1303 17.171 10.9897 17.0303C10.849 16.8897 10.77 16.6989 10.77 16.5V10.5C10.771 10.3163 10.8393 10.1393 10.962 10.0026C11.0848 9.86596 11.2534 9.7791 11.436 9.75852C11.6185 9.73794 11.8023 9.78508 11.9524 9.891C12.1025 9.99691 12.2085 10.1542 12.2503 10.3331C12.7577 9.98894 13.3492 9.78947 13.9614 9.75611C14.5736 9.72276 15.1833 9.85679 15.725 10.1438C16.2668 10.4308 16.7201 10.86 17.0364 11.3852C17.3526 11.9105 17.5198 12.5119 17.52 13.125ZM9.64502 7.875C9.64502 8.0975 9.57904 8.31501 9.45542 8.50002C9.33181 8.68502 9.15611 8.82922 8.95054 8.91436C8.74497 8.99951 8.51877 9.02179 8.30054 8.97838C8.08231 8.93498 7.88186 8.82783 7.72452 8.6705C7.56719 8.51316 7.46004 8.31271 7.41664 8.09448C7.37323 7.87625 7.39551 7.65005 7.48065 7.44448C7.5658 7.23891 7.71 7.06321 7.895 6.9396C8.08001 6.81598 8.29752 6.75 8.52002 6.75C8.81839 6.75 9.10454 6.86853 9.31551 7.0795C9.52649 7.29048 9.64502 7.57663 9.64502 7.875Z" fill="#3346AA"/>
</svg>
